<svg width="88" height="18" viewBox="0 0 88 18" fill="none" xmlns="http://www.w3.org/2000/svg">
<g clip-path="url(#clip0_156_769)">
<path d="M16.468 0.0512695H11.5721V6.55439H4.89589V0.0512695H0V17.36H4.89589V10.6096H11.5721V17.36H16.468V0.0512695Z" fill="#999999"/>
<path d="M30.3061 0.0512695H25.4844L17.8438 17.36H22.8386L24.1986 13.9971L25.6327 10.387L27.8581 4.84825L30.0835 10.387L31.5177 13.9971L32.8776 17.36H37.9713L30.3061 0.0512695Z" fill="#999999"/>
<path d="M51.5748 11.9201C52.6381 11.4008 53.4788 10.6838 54.0722 9.74414C54.6657 8.80452 54.9624 7.71655 54.9624 6.45548C54.9624 5.16969 54.641 4.03227 54.0228 3.06793C53.3799 2.10358 52.4897 1.36178 51.3523 0.842523C50.1902 0.323262 48.8302 0.0512695 47.2724 0.0512695H39.3599V3.90863H46.9757C47.9647 3.90863 48.7313 4.13117 49.2505 4.57625C49.7451 5.02134 50.0171 5.66423 50.0171 6.45548C50.0171 7.27146 49.7451 7.88963 49.2505 8.33471C48.7313 8.77979 47.9647 8.97761 46.9757 8.97761H39.3599V17.36H44.2558V12.7608H46.9262L50.0665 17.36H55.3086L51.5748 11.9201Z" fill="#999999"/>
<path d="M71.3868 0.0512695H57.6635V3.83445H71.3868V0.0512695ZM71.3868 6.75221H57.6635V10.4118H71.3868V6.75221ZM57.6635 13.5768V17.36H71.3868V13.5768H57.6635Z" fill="#999999"/>
<path d="M88 0.0512695H74.2766V3.83445H88V0.0512695ZM88 6.75221H74.2766V10.4118H88V6.75221ZM74.2766 13.5768V17.36H88V13.5768H74.2766Z" fill="#999999"/>
</g>
<defs>
<clipPath id="clip0_156_769">
<rect width="88" height="17.3087" fill="white" transform="translate(0 0.0512695)"/>
</clipPath>
</defs>
</svg>
