<svg width="88" height="27" viewBox="0 0 88 27" fill="none" xmlns="http://www.w3.org/2000/svg">
<g clip-path="url(#clip0_156_789)">
<path d="M36.5941 21.9737C35.4323 21.8286 34.1254 21.6836 33.1089 21.3935C31.6568 20.9583 31.3663 20.3781 31.3663 18.9275C31.5115 17.3319 31.802 15.8814 32.0924 14.2858C32.6733 10.6594 33.3993 7.03304 33.9802 3.40667C34.1254 2.82645 34.4158 1.95612 34.7063 1.81106C35.5776 1.66601 36.5941 1.66601 37.4653 1.81106C37.6106 1.81106 37.901 2.53634 37.7558 2.9715C37.6106 3.84183 37.4653 4.85722 37.3201 5.72755C37.0297 6.88799 37.3201 7.75832 38.7723 7.1781C39.7888 6.88799 40.8053 6.74293 41.8218 6.74293C43.5644 6.74293 44.7261 7.61326 45.0165 9.35392C45.4521 12.9803 44.8713 16.4616 42.6931 19.6528C41.6766 21.1034 40.0792 21.5385 38.4818 21.6836C37.901 21.6836 37.1749 21.6836 36.5941 21.6836C36.5941 21.8286 36.5941 21.9737 36.5941 21.9737ZM37.3201 18.4924C39.2079 18.4924 39.934 18.0572 40.3696 16.3166C40.8053 15.1561 40.9505 13.9957 41.0957 12.8352C41.3861 10.9495 40.8053 10.2242 38.9175 10.3693C38.3366 10.3693 37.901 10.5144 37.4653 10.6594C36.8845 10.9495 36.3036 11.3847 36.3036 11.8199C35.868 13.5605 35.7228 15.3012 35.4323 17.0418C35.2871 17.7671 35.5776 18.0572 36.3036 18.2023C36.5941 18.3473 37.0297 18.3473 37.3201 18.4924Z" fill="#999999"/>
<path d="M51.6964 21.8286C50.6799 21.6836 49.8086 21.6836 48.7921 21.5385C46.3235 21.1034 45.4522 18.9275 45.7426 17.1869C45.8878 15.1561 46.4687 13.1253 46.9043 11.0946C47.4852 8.77368 49.0825 7.32313 51.5512 7.03302C53.2938 6.88797 55.3268 6.88797 57.0693 7.17808C59.1023 7.61324 59.8284 8.77368 59.8284 10.8045C59.8284 12.4001 59.538 14.1407 59.2476 15.7363C58.0858 20.3781 56.3433 21.8286 51.6964 21.8286ZM52.132 18.3473C54.0198 18.3473 54.6007 18.0572 55.1815 16.1715C55.6172 15.011 55.9076 13.7056 55.9076 12.5451C55.9076 11.9649 55.6172 11.0946 55.1815 10.8045C54.0198 9.78907 51.2608 10.5143 50.8251 11.9649C50.3895 13.2704 49.9538 14.5759 49.8086 16.0264C49.5182 17.7671 50.099 18.3473 52.132 18.3473Z" fill="#999999"/>
<path d="M22.3631 21.9737C21.2014 21.6836 20.0397 21.5386 18.8779 21.2485C17.7162 20.8133 16.8449 19.943 16.8449 18.6375C16.5545 15.5913 16.9902 12.6902 18.4423 9.93418C19.3136 8.33858 20.4753 7.17814 22.3631 7.03308C24.1057 6.88803 25.8482 6.74297 27.5908 6.88803C29.4786 7.17814 30.6403 8.62869 30.4951 10.8045C30.3499 12.8353 30.2047 14.866 29.769 16.8968C29.043 20.088 26.8647 21.6836 23.5248 21.8287C23.0892 21.8287 22.6535 21.8287 22.3631 21.8287V21.9737ZM22.944 18.3474C24.6865 18.3474 25.5578 17.9122 25.9935 16.1715C26.4291 14.866 26.5743 13.5606 26.7195 12.2551C26.7195 11.6748 26.4291 10.8045 25.8482 10.5144C24.1057 9.49902 21.7822 10.5144 21.2014 12.4001C20.911 13.4155 20.6205 14.5759 20.4753 15.5913C20.3301 17.6221 20.911 18.3474 22.944 18.3474Z" fill="#999999"/>
<path d="M80.0133 10.3693C79.7228 10.3693 79.2872 10.3693 78.9968 10.3693C78.4159 10.3693 77.5446 10.3693 77.3994 10.2243C77.2542 9.49901 77.2542 8.62868 77.3994 7.90341C77.3994 7.75835 77.835 7.46824 78.1255 7.32319C80.5941 6.88802 82.9176 6.59791 85.3862 7.17813C87.274 7.6133 88.2905 8.91879 88.0001 10.8045C87.5644 13.9957 86.9836 17.1869 86.2575 20.3781C86.1123 21.3935 84.9506 21.9737 83.6436 21.3935C82.6271 20.9584 81.9011 21.2485 81.0298 21.3935C79.5776 21.6836 78.1255 21.8287 76.5281 21.6836C75.076 21.5386 74.4951 20.6682 74.3499 19.2177C74.0595 15.5913 76.3829 12.9803 79.868 12.8353C80.7393 12.8353 81.4654 12.8353 82.3367 12.8353C82.9176 12.8353 83.6436 12.8353 83.7888 11.9649C83.9341 10.9496 83.3532 10.5144 82.4819 10.5144C81.6106 10.3693 80.7393 10.3693 80.0133 10.3693ZM81.0298 15.5913C80.3037 15.5913 79.2872 15.5913 78.7063 16.4617C77.9803 17.477 78.4159 18.6375 79.5776 18.6375C80.4489 18.6375 81.4654 18.4924 82.1915 18.2023C83.0628 17.9122 83.208 16.8968 83.0628 16.1715C83.0628 15.8814 82.1915 15.8814 81.6106 15.7364C81.4654 15.5913 81.3202 15.5913 81.0298 15.5913Z" fill="#999999"/>
<path d="M70.2839 21.3935C68.5413 21.3935 68.3961 21.3935 68.6865 19.5078C69.1221 17.1869 69.5578 14.866 69.9934 12.5451C70.2839 10.6594 69.8482 10.2243 67.9604 10.3693C65.7822 10.5144 65.3466 10.8045 65.0561 12.9803C64.7657 15.1561 64.3301 17.3319 63.8944 19.5078C63.604 21.2484 61.7162 22.1188 60.2641 21.2484C59.9736 21.1034 59.9736 20.5232 59.9736 20.088C60.2641 18.3473 60.5545 16.6067 60.8449 14.866C61.1354 12.9803 61.571 11.0946 61.8614 9.20887C62.1518 7.32316 63.1684 6.59788 64.9109 7.32316C65.9274 7.75832 66.6535 7.61327 67.5248 7.46821C68.6865 7.1781 69.8482 7.03305 71.1551 6.88799C73.0429 6.74294 74.6403 7.61327 74.2046 10.5144C73.769 13.5605 73.1882 16.4616 72.6073 19.5078C72.3169 21.3935 72.1717 21.3935 70.2839 21.3935Z" fill="#999999"/>
<path d="M16.4092 8.19349C15.8283 11.3847 15.2475 14.5759 14.6666 17.6221C14.3762 19.7979 13.9405 21.8287 12.7788 23.7144C12.4884 24.2946 12.198 24.8748 11.7623 25.31C10.6006 26.9056 10.4554 26.9056 8.71282 26.0352C8.13196 25.7451 7.98674 25.455 8.27717 24.8748C8.5676 24.1495 9.00325 23.5693 9.29367 22.844C9.87453 21.3935 10.3102 19.9429 10.6006 18.3473C11.3267 15.1561 11.9075 11.9649 12.4884 8.77371C12.6336 8.33855 12.924 7.46822 13.3597 7.46822C14.231 7.32316 15.2475 7.46822 16.264 7.46822C16.264 7.46822 16.4092 8.04844 16.4092 8.19349Z" fill="#999999"/>
<path d="M9.00334 0.650635C10.6007 0.650635 11.3268 1.23085 11.3268 2.39129C11.472 4.13195 10.1651 5.29239 8.42248 5.43745C7.26076 5.29239 6.24426 4.56712 6.24426 3.55173C6.24426 1.95613 7.40598 0.650635 9.00334 0.650635Z" fill="#999999"/>
<path d="M10.3103 8.33857C10.3103 9.93417 9.14858 11.0946 7.406 11.0946C6.09907 11.0946 5.22778 10.2243 5.22778 9.06384C5.22778 7.6133 6.67993 6.3078 8.27729 6.3078C9.439 6.3078 10.4555 7.17813 10.3103 8.33857Z" fill="#999999"/>
<path d="M4.79208 2.6814C4.79208 4.27701 3.63036 5.43745 2.033 5.43745C0.726073 5.29239 0 4.56712 0 3.11657C0 1.52096 1.16172 0.650635 2.90429 0.650635C4.35644 0.650635 4.93729 1.23085 4.79208 2.6814Z" fill="#999999"/>
<path d="M15.538 0.650635C16.9901 0.650635 17.571 1.37591 17.571 2.53635C17.571 3.9869 16.264 5.14734 14.6667 5.14734C13.2145 5.14734 12.6337 4.56712 12.6337 3.40668C12.6337 1.66602 13.7954 0.650635 15.538 0.650635Z" fill="#999999"/>
</g>
<defs>
<clipPath id="clip0_156_789">
<rect width="88" height="26.1099" fill="white" transform="translate(0 0.650635)"/>
</clipPath>
</defs>
</svg>
