<svg width="88" height="19" viewBox="0 0 88 19" fill="none" xmlns="http://www.w3.org/2000/svg">
<g clip-path="url(#clip0_156_775)">
<path d="M23.5939 18.5193C18.3773 18.4853 14.661 14.7689 14.8314 9.55228C15.036 3.44922 19.2297 0.823881 23.6621 0.789786C28.8787 0.75569 32.4587 4.43798 32.4928 9.68866C32.5269 14.8711 28.7082 18.6898 23.5939 18.5193ZM21.2414 12.6209C21.8551 9.79095 22.4006 7.06332 22.9802 4.36979C22.2983 3.85836 21.7528 3.44922 21.2755 3.10827C19.6389 3.6197 18.6501 4.64256 17.9 5.97227C16.9113 7.67704 16.9113 9.55228 17.184 11.4275C17.5591 14.0529 19.7071 16.2009 22.2642 16.6782C25.1282 17.2237 27.9922 16.0304 29.2878 13.6778C30.7539 10.9843 30.7199 8.25666 29.1856 5.59722C28.5037 4.40389 27.5149 3.48331 25.9806 3.14236C25.4351 3.51741 24.8896 3.96065 24.3099 4.40389C24.9236 7.1997 25.5033 9.89323 26.0829 12.655C25.2646 13.4051 24.4804 14.1211 23.628 14.9052C22.7756 14.087 22.0255 13.371 21.2414 12.6209Z" fill="#999999"/>
<path d="M34.2317 18.383C34.2317 17.8375 34.2317 17.4965 34.2317 17.0874C34.7772 16.951 35.2886 16.8146 35.8341 16.7123C36.1751 15.519 36.2774 5.87003 35.9705 2.66507C35.4591 2.59688 34.9477 2.49459 34.2658 2.39231C34.2317 1.98316 34.2317 1.57402 34.1976 1.06259C34.7772 0.994399 35.1863 0.926208 35.6296 0.926208C37.7094 0.926208 39.8233 0.926208 41.9031 0.926208C42.2441 0.926208 42.585 0.960304 42.926 0.994399C44.7671 1.16488 46.165 1.94907 46.7787 3.79021C47.4266 5.66546 47.0174 7.33613 45.5854 8.73403C45.449 8.83632 45.3467 8.9727 45.1422 9.17727C46.3696 9.85918 47.3584 10.7116 47.8016 12.0413C48.7904 15.0758 47.0515 18.1443 43.8465 18.383C40.7098 18.5876 37.5389 18.383 34.2317 18.383ZM38.289 16.6782C39.5846 16.6782 40.7098 16.7123 41.8008 16.6782C42.5168 16.6441 43.2669 16.576 43.9488 16.3373C45.2104 15.894 45.79 14.7007 45.7218 13.2005C45.6536 11.8026 44.9035 10.6775 43.642 10.4388C41.869 10.1319 40.0961 10.2683 38.2549 10.3365C38.289 12.4845 38.289 14.462 38.289 16.6782ZM38.289 8.46127C39.5505 8.46127 40.6757 8.46127 41.8008 8.46127C42.1759 8.46127 42.585 8.35898 42.9601 8.2567C44.2216 7.88165 45.0058 6.75651 44.9376 5.46088C44.8694 4.16526 44.0852 3.07421 42.8578 2.90374C41.3576 2.69916 39.8574 2.69916 38.289 2.93783C38.289 4.74488 38.289 6.48374 38.289 8.46127Z" fill="#999999"/>
<path d="M66.2131 15.5531C66.7927 16.1668 67.3041 16.6782 67.9179 17.3601C67.5428 17.7693 67.2018 18.1443 66.7927 18.6217C66.0767 17.9739 65.463 17.4283 64.8493 16.8828C59.2917 20.19 54.0411 18.042 52.0294 15.0758C49.6087 11.5298 49.9837 6.10868 52.9841 3.21058C56.0186 0.244291 61.3716 0.00562346 64.8493 2.66506C68.4975 5.42678 69.043 10.5411 66.2131 15.5531ZM64.406 14.0529C65.7357 12.2458 66.0426 10.7456 65.7358 8.22259C65.3948 5.39268 63.4173 3.31287 60.5533 2.73325C57.7234 2.15363 54.9275 3.31287 53.5978 5.76773C52.1999 8.32488 52.1658 10.9843 53.5637 13.5415C55.439 16.9851 60.11 17.8375 63.2809 15.3144C62.3603 14.3597 61.4397 13.4051 60.4169 12.314C60.8942 11.8708 61.3034 11.5298 61.8489 11.0184C62.7695 12.1095 63.5877 13.0641 64.406 14.0529Z" fill="#999999"/>
<path d="M88 9.31363C88 13.746 85.8861 16.951 82.3402 18.042C78.6579 19.2013 74.43 18.383 72.0775 15.1439C69.3498 11.4275 69.9977 5.52905 73.5095 2.66504C77.0554 -0.267152 82.9539 0.244278 85.9884 3.6879C87.4545 5.42676 88.0341 7.47248 88 9.31363ZM85.7838 9.68868C85.7838 9.5182 85.7838 9.34773 85.7838 9.17725C85.6815 5.56315 83.3289 2.86962 79.783 2.63095C76.6462 2.39228 73.5777 3.96067 72.7253 8.0862C72.5548 8.90449 72.5548 9.79096 72.623 10.6093C72.998 15.1439 77.26 17.9056 81.556 16.3714C84.2495 15.4167 85.8179 12.9618 85.7838 9.68868Z" fill="#999999"/>
<path d="M11.1151 2.69913C11.1151 3.72199 11.1151 4.71076 11.1151 5.73361C11.1151 8.0521 11.1492 10.3706 11.081 12.6891C10.9787 15.9963 8.55792 18.383 5.21658 18.5194C3.37544 18.5875 1.60248 18.383 0 17.2237C0 16.2009 0 15.1439 0 14.0529C0.613716 14.0529 1.09105 14.0529 1.67067 14.0529C1.73886 14.7689 1.80705 15.4167 1.90934 16.0645C4.80744 17.5647 7.84192 16.5418 8.7284 13.7801C8.86478 13.4051 8.93297 12.9959 8.93297 12.6209C8.93297 9.34772 8.93297 6.07457 8.93297 2.69913C8.38745 2.56275 7.87602 2.46046 7.2623 2.32408C7.22821 1.91494 7.22821 1.57399 7.19411 1.02846C9.10345 0.789795 10.9446 0.857986 12.8539 0.994367C12.9221 1.43761 12.9562 1.81265 13.0244 2.28999C12.4107 2.42637 11.8311 2.52866 11.1151 2.69913Z" fill="#999999"/>
</g>
<defs>
<clipPath id="clip0_156_775">
<rect width="88" height="17.8318" fill="white" transform="translate(0 0.789795)"/>
</clipPath>
</defs>
</svg>
