<svg width="12" height="17" viewBox="0 0 12 17" fill="none" xmlns="http://www.w3.org/2000/svg">
<path d="M6 0C2.968 0 0.5 2.467 0.5 5.5C0.5 9.873 5.413 15.586 5.622 15.828L6 16.263L6.378 15.827C6.587 15.586 11.5 9.873 11.5 5.5C11.5 2.467 9.032 0 6 0ZM6 14.715C4.854 13.291 1.5 8.836 1.5 5.5C1.5 3.019 3.519 1 6 1C8.481 1 10.5 3.019 10.5 5.5C10.5 8.833 7.146 13.291 6 14.715ZM6 2.639C4.346 2.639 3 3.985 3 5.639C3 7.293 4.346 8.639 6 8.639C7.654 8.639 9 7.293 9 5.639C9 3.985 7.654 2.639 6 2.639ZM6 7.639C4.897 7.639 4 6.742 4 5.639C4 4.536 4.897 3.639 6 3.639C7.103 3.639 8 4.536 8 5.639C8 6.742 7.103 7.639 6 7.639Z" fill="#666666"/>
</svg>
