<svg width="88" height="28" viewBox="0 0 88 28" fill="none" xmlns="http://www.w3.org/2000/svg">
<g clip-path="url(#clip0_156_800)">
<path d="M4.94254 23.3777C5.87992 21.4177 6.76049 19.5998 7.64106 17.8103C7.69787 17.725 7.8683 17.6398 7.98192 17.6398C8.06714 17.6398 8.15236 17.8103 8.20917 17.8955C8.97611 19.4294 9.71466 20.9633 10.4816 22.4687C10.6236 22.7528 10.7657 23.0084 10.9645 23.3777C11.5894 22.1847 12.1575 21.0769 12.754 19.9407C13.0381 19.401 13.4074 18.8897 13.5778 18.2931C13.7482 17.725 14.0607 17.583 14.572 17.583C14.9981 17.6114 15.3957 17.583 15.8786 17.583C14.2311 20.878 12.6404 24.0594 10.9645 27.3545C9.99871 25.4229 9.08974 23.6334 8.18076 21.8722C8.12395 21.7302 7.95352 21.6734 7.8399 21.5598C7.75468 21.645 7.66946 21.7302 7.61265 21.8438C6.70368 23.6334 5.82311 25.4513 4.85733 27.3829C3.20981 24.1163 1.61911 20.9348 0 17.725C0.0852163 17.6966 0.142027 17.6114 0.227243 17.6114C2.01679 17.6114 2.01679 17.6114 2.78373 19.1737C3.35184 20.3383 3.91995 21.5314 4.48806 22.7244C4.60168 22.9232 4.74371 23.0937 4.94254 23.3777Z" fill="#999999"/>
<path d="M31.2459 27.2408C30.5926 27.2408 30.0813 27.2408 29.5416 27.2408C29.5416 24.0594 29.5416 20.9064 29.5416 17.6682C29.9393 17.6682 30.3938 17.6398 30.8483 17.6114C32.1833 17.6114 33.49 17.6114 34.825 17.6114C36.3021 17.6114 37.7224 19.0033 37.7508 20.4519C37.7792 21.9574 37.6372 22.2699 36.3589 23.4061C35.9896 23.747 35.9612 24.0594 36.2169 24.4855C36.7566 25.3377 37.2111 26.2466 37.7224 27.1272C37.6656 27.184 37.6087 27.2692 37.5519 27.2692C35.6772 27.326 35.592 27.3544 34.7966 25.5649C34.2853 24.4287 33.6604 23.9174 32.4106 24.1446C32.0413 24.2014 31.672 24.1446 31.2459 24.1446C31.2459 25.1672 31.2459 26.1614 31.2459 27.2408ZM31.2175 22.1563C32.439 22.1563 33.5184 22.1563 34.5978 22.1563C35.1659 22.1563 36.0465 21.3609 36.0181 20.878C35.9612 20.3667 35.6488 19.9974 35.3363 19.5998C35.0807 19.2873 34.7966 19.3157 34.4558 19.3157C33.3764 19.3157 32.3254 19.3157 31.2175 19.3157C31.2175 20.3099 31.2175 21.1905 31.2175 22.1563Z" fill="#999999"/>
<path d="M70.1614 17.6114C72.0361 17.6114 73.8825 17.6114 75.7004 17.6114C76.2401 17.6114 76.6378 17.8102 77.0355 18.1511C78.7398 19.6282 78.7398 22.2983 76.581 23.5765C76.2969 23.747 76.2969 23.8606 76.439 24.0878C77.0071 25.082 77.5752 26.0478 78.1433 27.0136C77.9729 27.1556 77.9161 27.2408 77.8592 27.2408C76.6378 27.4397 75.8425 26.9852 75.5016 25.7637C75.4732 25.6501 75.3028 25.5649 75.2744 25.4229C74.9335 24.4855 74.4222 23.889 73.3144 24.0878C72.8599 24.173 72.377 24.0878 71.8657 24.0878C71.8657 25.1104 71.8657 26.0762 71.8657 27.1272C71.2692 27.1272 70.7579 27.1272 70.1614 27.1272C70.1614 24.0594 70.1614 20.9348 70.1614 17.6114ZM71.8373 22.1563C72.7747 22.1563 73.5984 21.9858 74.337 22.2131C74.7915 22.3551 75.0755 22.1847 75.388 22.1279C76.0129 22.0142 76.6662 21.1905 76.6378 20.7076C76.6094 20.0543 75.7572 19.3157 75.0471 19.3157C73.9677 19.3157 72.9167 19.3157 71.8373 19.3157C71.8373 20.3099 71.8373 21.1905 71.8373 22.1563Z" fill="#999999"/>
<path d="M21.5029 17.6398C24.1162 17.4409 25.508 18.6908 26.417 20.6792C26.4738 20.7928 26.6442 20.9064 26.6158 21.02C26.5022 22.071 26.8147 23.122 26.3602 24.173C25.8773 25.2808 25.4228 25.8205 24.4854 26.5023C23.3492 27.326 22.1278 27.3828 20.8495 27.2692C20.3951 27.2408 19.969 26.9 19.5145 26.7295C18.1794 26.1614 17.6113 24.94 16.9864 23.7754C17.0716 22.5539 16.7024 21.3325 17.4125 20.1395C18.0942 18.9748 19.0884 18.2363 20.2246 17.6966C20.6791 17.4694 21.2756 17.6398 21.5029 17.6398ZM21.9574 19.3157C20.7075 19.3157 20.4803 19.4293 19.6565 20.1963C19.0316 20.7928 18.7475 21.5029 18.7191 22.3551C18.6907 23.2641 19.1168 24.0026 19.6849 24.6559C20.253 25.3093 21.1052 25.5081 21.8437 25.5081C22.5823 25.5081 23.4628 25.3093 24.0025 24.6559C24.5138 24.0594 24.9967 23.3777 24.9683 22.4971C24.9399 21.6734 24.7411 20.9064 24.1162 20.2815C23.4628 19.685 22.8095 19.1453 21.9574 19.3157Z" fill="#999999"/>
<path d="M49.1698 27.184C48.9426 27.2408 48.8573 27.2692 48.7721 27.2692C48.062 27.2692 47.2951 27.4112 46.6985 27.184C46.1304 26.9567 45.7328 26.3034 45.2783 25.8205C44.4545 24.9968 43.6024 24.1446 42.6934 23.2356C42.4945 24.5991 42.665 25.8773 42.5798 27.2124C42.0401 27.2124 41.5004 27.2124 40.9323 27.2124C40.9323 24.031 40.9323 20.878 40.9323 17.6682C41.4435 17.6682 41.9833 17.6682 42.6366 17.6682C42.6366 18.8896 42.6366 20.0826 42.6366 21.4177C43.858 20.1962 44.9658 19.1168 46.0452 18.009C46.3293 17.725 46.5849 17.5829 47.011 17.6114C47.6075 17.6682 48.204 17.6114 48.8574 17.6114C47.2666 19.2021 45.7612 20.7075 44.2557 22.213C45.8748 23.9174 47.4939 25.5081 49.1698 27.184Z" fill="#999999"/>
<path d="M56.9244 20.1395C56.0439 19.5998 55.1349 19.1737 54.0271 19.2873C53.2033 19.3725 51.9251 20.2815 51.641 21.0768C51.2718 22.0994 51.2434 23.0084 51.8683 24.0026C52.266 24.6275 52.7488 24.9684 53.3738 25.224C54.1123 25.5365 54.9077 25.7353 55.6746 25.224C55.7598 25.1672 55.8166 25.1104 55.9018 25.082C56.2143 24.94 56.6404 24.5991 56.8392 24.7127C57.2369 24.8832 57.5494 25.3093 57.8618 25.6785C57.9186 25.7353 57.8618 25.991 57.7766 26.0478C55.9871 27.2124 54.4532 27.8657 52.2944 26.6727C50.6752 25.7637 49.5958 24.4003 49.6527 22.3835C49.7095 20.3099 50.6468 18.8044 52.5216 17.867C52.8625 17.6966 53.1465 17.5546 53.5442 17.583C54.1123 17.6114 54.6804 17.6114 55.2485 17.583C56.2143 17.5546 56.9528 18.0375 57.663 18.634C58.0038 18.918 57.947 19.1453 57.6346 19.4293C57.3789 19.6566 57.1801 19.9122 56.9244 20.1395Z" fill="#999999"/>
<path d="M63.0033 19.3157C62.2079 19.3157 61.4978 19.3157 60.816 19.3157C59.623 19.3157 59.623 19.2873 59.5946 18.0091C59.5946 17.9239 59.5946 17.8102 59.5946 17.6682C62.3215 17.6682 65.02 17.6682 67.7754 17.6682C67.7754 18.1511 67.7754 18.6624 67.7754 19.2589C66.8096 19.2589 65.787 19.2589 64.736 19.2589C64.736 21.929 64.736 24.5139 64.736 27.184C64.1679 27.184 63.6282 27.184 63.0033 27.184C63.0033 24.5991 63.0033 21.9858 63.0033 19.3157Z" fill="#999999"/>
<path d="M41.3867 11.9303C41.3867 12.5268 41.3867 13.0381 41.3867 13.6347C40.4209 13.6631 39.512 13.7199 38.6314 13.0949C37.8928 12.5837 37.4384 12.0439 37.4384 11.135C37.4384 8.26603 37.4384 5.36868 37.4384 2.49973C37.4384 1.59075 37.8928 1.05105 38.6314 0.539754C39.512 -0.0567603 40.4209 5.05478e-05 41.3867 5.05478e-05C41.3867 0.568159 41.3867 1.07946 41.3867 1.70438C41.0174 1.70438 40.6482 1.73278 40.2789 1.70438C39.654 1.64757 39.3415 2.07365 39.1427 2.55654C38.9722 3.01103 38.8586 3.52232 38.8586 4.00522C38.8302 5.90838 38.8302 7.78314 38.8586 9.6863C38.8586 10.1692 38.9722 10.6805 39.1427 11.135C39.3415 11.6463 39.7108 12.0724 40.4209 11.9871C40.705 11.9019 41.0174 11.9303 41.3867 11.9303Z" fill="#999999"/>
<path d="M46.8406 13.6346C46.8406 13.0381 46.8406 12.5552 46.8406 11.9587C47.1814 11.9587 47.4939 11.9587 47.8348 11.9587C48.5165 11.9303 48.829 11.6462 49.113 10.9645C49.3403 10.4532 49.3971 9.91352 49.3971 9.37381C49.3971 7.61268 49.3687 5.87995 49.4255 4.11881C49.4539 3.57911 49.255 3.15303 49.113 2.67013C48.9142 1.9884 48.5449 1.73275 47.8064 1.70435C47.5223 1.70435 47.2383 1.70435 46.8974 1.70435C46.8974 1.16465 46.8974 0.596537 46.8974 0.0568341C47.8632 -0.0851931 48.7721 2.31976e-05 49.6243 0.568132C50.3913 1.05102 50.7889 1.64754 50.7889 2.52811C50.7889 5.39705 50.7889 8.29441 50.7889 11.1634C50.7889 12.0723 50.3344 12.612 49.5675 13.0949C48.7437 13.6346 47.8916 13.663 46.8406 13.6346Z" fill="#999999"/>
<path d="M88 27.2408C85.7844 27.2408 83.6824 27.2408 81.5236 27.2408C81.5236 24.0594 81.5236 20.9064 81.5236 17.6966C82.0065 17.6966 82.5462 17.6966 83.1427 17.6966C83.1427 20.2531 83.1427 22.838 83.1427 25.4797C83.7676 25.6501 84.3641 25.5365 84.9606 25.5649C85.5287 25.5933 86.0968 25.5649 86.665 25.5649C87.091 25.5649 87.716 25.4229 87.858 25.6501C88.0852 25.9626 87.9716 26.5307 88 26.9852C88.0284 27.042 88 27.0988 88 27.2408Z" fill="#999999"/>
<path d="M43.1763 6.90251C43.2899 6.87411 43.3751 6.8457 43.4603 6.8457C43.9716 6.8457 44.4829 6.8457 45.1079 6.8457C45.1079 7.27178 45.1647 7.69787 45.1079 8.09554C44.9658 8.86249 45.4487 9.51581 45.4203 10.2544C45.3919 10.9645 45.3919 11.6746 45.4203 12.3848C45.4203 12.5836 45.676 12.7824 45.676 12.9813C45.7044 13.5494 45.8464 14.1743 45.6476 14.6572C45.4487 15.1401 44.909 15.481 44.4829 15.8786C44.3977 15.9354 44.1989 15.9638 44.1137 15.907C43.7444 15.6514 43.3751 15.3673 43.0343 15.1117C42.5514 14.7708 42.4945 14.2879 42.665 13.7482C42.7218 13.5494 42.8638 13.3505 42.8922 13.1233C43.0058 11.1917 43.0911 9.23176 43.1763 7.30019C43.1479 7.15816 43.1479 7.01614 43.1763 6.90251Z" fill="#999999"/>
<path d="M46.5281 4.00519C46.4429 4.40287 46.6702 4.85736 46.2441 5.28344C45.6476 5.87995 45.0227 6.44806 44.1989 6.50487C43.716 6.53328 43.1479 6.27763 42.7218 5.99357C41.8981 5.45387 41.5288 4.65852 41.6424 3.60752C41.7276 2.69854 42.0969 2.13044 42.8922 1.70436C44.5114 0.852193 46.8122 1.81798 46.5281 4.00519ZM44.1705 3.06782C43.9148 3.12463 43.6308 3.15303 43.432 3.29506C43.2899 3.40868 43.1763 3.66433 43.1763 3.86317C43.1763 4.28925 43.7728 4.82895 44.1421 4.82895C44.5114 4.82895 45.1079 4.28925 45.1079 3.86317C45.1079 3.66433 44.9942 3.43709 44.8522 3.29506C44.6818 3.18144 44.4261 3.15303 44.1705 3.06782Z" fill="#999999"/>
</g>
<defs>
<clipPath id="clip0_156_800">
<rect width="88" height="27.4112" fill="white"/>
</clipPath>
</defs>
</svg>
