<svg width="88" height="20" viewBox="0 0 88 20" fill="none" xmlns="http://www.w3.org/2000/svg">
<g clip-path="url(#clip0_156_782)">
<path d="M41.9434 0.852038C42.6628 0.74137 43.3083 0.612256 43.9539 0.575367C45.411 0.464698 46.7206 0.888928 47.8457 1.81117C48.1962 2.10628 48.436 2.06939 48.7864 1.79272C52.2725 -0.955549 57.5108 0.999596 58.3408 5.37101C58.433 5.81368 58.4699 6.25636 58.4699 6.69903C58.4884 9.05996 58.4699 11.4393 58.4884 13.8003C58.4884 14.2429 58.3408 14.3905 57.8981 14.3721C56.9943 14.3536 56.0906 14.3536 55.1868 14.3721C54.8732 14.3721 54.7625 14.2614 54.781 13.9478C54.7994 11.6053 54.7994 9.2813 54.781 6.93881C54.781 5.96124 54.5043 5.09434 53.619 4.57788C52.0696 3.67409 50.2251 4.74389 50.2067 6.55147C50.1882 8.9124 50.2067 11.2549 50.2067 13.6158C50.2067 14.3905 50.2067 14.3905 49.4135 14.3905C48.7126 14.3905 47.9933 14.3905 47.2924 14.3905C46.4993 14.3905 46.4993 14.3905 46.4993 13.6343C46.4993 11.3656 46.4993 9.07841 46.4993 6.8097C46.4993 5.62923 45.9275 4.78078 44.913 4.41188C43.6588 3.95076 42.2201 4.76233 41.9803 6.09035C41.925 6.36703 41.9065 6.66214 41.9065 6.95726C41.9065 9.22596 41.9065 11.5131 41.9065 13.7818C41.9065 14.3905 41.8881 14.3905 41.2794 14.3905C40.4309 14.3905 39.5825 14.3721 38.7525 14.3905C38.3651 14.3905 38.1991 14.2983 38.2176 13.874C38.236 9.52108 38.236 5.16812 38.2176 0.815149C38.2176 0.446253 38.3282 0.298695 38.7156 0.31714C39.564 0.335585 40.4125 0.335585 41.2425 0.31714C41.6299 0.298695 41.9803 0.31714 41.9434 0.852038Z" fill="#999999"/>
<path d="M3.76276 13.7818C3.76276 15.6447 3.76276 17.4339 3.76276 19.2599C3.55987 19.223 3.4492 19.223 3.33853 19.1861C2.36096 18.8541 1.38338 18.5221 0.405812 18.2086C0.110695 18.1163 0.0369162 17.9503 0.0369162 17.6737C0.0369162 14.1323 -0.0553076 10.6093 0.0738058 7.06792C0.202919 3.23141 3.26475 0.520027 6.75081 0.372468C10.7349 0.206465 13.3725 2.8994 14.0549 5.81368C15.051 10.056 12.0445 14.1876 7.69149 14.5381C6.64014 14.6303 5.64413 14.4643 4.66655 14.1138C4.40833 14.0032 4.13165 13.9109 3.76276 13.7818ZM7.10126 10.8307C8.98263 10.8307 10.532 9.33663 10.532 7.5106C10.532 5.61078 9.03796 4.07987 7.17504 4.06142C5.29368 4.06142 3.7812 5.51856 3.7812 7.32615C3.76276 9.31818 5.20145 10.8307 7.10126 10.8307Z" fill="#999999"/>
<path d="M69.7766 1.01804C69.9057 0.317139 69.9057 0.317139 70.6066 0.317139C71.4366 0.317139 72.2666 0.335583 73.0966 0.317139C73.4102 0.317139 73.5209 0.446252 73.5209 0.759813C73.5209 5.14967 73.5209 9.52108 73.5209 13.9109C73.5209 14.2429 73.4102 14.372 73.0598 14.372C72.1744 14.3536 71.2706 14.3536 70.3853 14.372C70.0348 14.372 69.7766 14.3352 69.795 13.8925C66.1061 15.239 62.9336 14.6672 60.628 11.3287C59.0048 8.98618 59.0233 5.75834 60.7386 3.4343C63.0627 0.261804 66.1614 -0.365318 69.7766 1.01804ZM66.5119 10.8307C68.467 10.8307 69.961 9.37352 69.9795 7.45526C69.9979 5.61079 68.4486 4.06143 66.6225 4.06143C64.7227 4.06143 63.1734 5.55545 63.1734 7.41837C63.1918 9.28129 64.7043 10.8307 66.5119 10.8307Z" fill="#999999"/>
<path d="M26.4867 12.2509C25.3616 13.4314 24.0336 14.1138 22.5026 14.3536C19.0904 14.9254 15.7703 12.8965 14.7005 9.59484C13.0774 4.70698 17.209 -0.254662 22.2997 0.483129C25.8043 0.981138 28.3312 3.84008 28.405 7.38147C28.405 7.84259 28.3865 8.30371 28.405 8.76483C28.4234 9.15217 28.2759 9.26284 27.907 9.26284C24.9927 9.24439 22.0969 9.26284 19.1826 9.26284C18.9981 9.26284 18.7952 9.26284 18.5739 9.26284C19.1826 11.0335 21.8755 11.3287 23.886 9.87152C24.7345 10.6278 25.5829 11.4209 26.4867 12.2509ZM24.218 5.62922C23.7384 4.54098 22.226 3.82163 20.9164 4.00608C19.8466 4.15364 18.703 4.96521 18.6108 5.62922C20.4737 5.62922 22.3182 5.62922 24.218 5.62922Z" fill="#999999"/>
<path d="M79.1834 1.12869C79.9027 0.99958 80.5667 0.815132 81.2492 0.741353C84.4217 0.409347 87.5204 2.8625 87.8893 6.035C88 6.99413 87.9815 7.9717 87.9815 8.93083C88 10.554 87.9815 12.1956 88 13.8187C88 14.2245 87.8709 14.3536 87.4651 14.3536C86.5797 14.3352 85.6759 14.3352 84.7906 14.3536C84.3664 14.372 84.2372 14.2245 84.2372 13.8003C84.2557 11.5684 84.2557 9.33662 84.2372 7.12324C84.2372 5.90589 83.6286 5.02054 82.5588 4.61476C80.9172 3.98763 79.128 5.20499 79.128 6.95724C79.128 9.22595 79.1096 11.5131 79.128 13.7818C79.128 14.2245 78.9805 14.372 78.5563 14.3536C77.6893 14.3167 76.804 14.3352 75.9371 14.3536C75.5498 14.3536 75.4391 14.206 75.4391 13.8371C75.4575 11.8636 75.4391 9.90841 75.4391 7.93482C75.4391 5.59233 75.4391 3.2314 75.4391 0.888911C75.4391 0.464681 75.5498 0.280234 76.0109 0.298678C76.8409 0.335568 77.6709 0.298678 78.5009 0.298678C79.1096 0.298678 79.1096 0.298678 79.1465 0.907356C79.1465 0.981135 79.1649 1.03647 79.1834 1.12869Z" fill="#999999"/>
<path d="M29.2719 10.6647C29.3272 9.39196 29.2903 8.10083 29.4563 6.84659C29.899 3.50808 32.9055 0.630701 36.2255 0.224916C37.4244 0.0773578 37.4244 0.0773578 37.4244 1.25782C37.4244 1.8665 37.4244 2.49362 37.4244 3.1023C37.4244 3.76631 37.4244 3.76631 36.7789 3.87698C34.7499 4.22743 33.3113 5.70301 33.053 7.73194C32.9977 8.11928 33.0161 8.52506 33.0161 8.93084C33.0161 10.554 32.9977 12.1587 33.0161 13.7818C33.0161 14.206 32.9055 14.3905 32.4444 14.372C31.5959 14.3352 30.7474 14.3352 29.9174 14.372C29.4563 14.3905 29.2903 14.2614 29.3087 13.7818C29.3456 12.7489 29.3272 11.716 29.3272 10.6831C29.3087 10.6647 29.2903 10.6647 29.2719 10.6647Z" fill="#999999"/>
</g>
<defs>
<clipPath id="clip0_156_782">
<rect width="88" height="19.1088" fill="white" transform="translate(0 0.151123)"/>
</clipPath>
</defs>
</svg>
